<svg width="21" height="9" viewBox="0 0 21 9" fill="none" xmlns="http://www.w3.org/2000/svg">
<path d="M2.25979 6.23505L1.45155 8.06598H0L3.56289 -9.53674e-07H5.01443L8.56083 8.06598H7.10928L6.30103 6.23505H2.25979ZM5.7567 4.96495L4.28866 1.64948L2.82062 4.96495H5.7567ZM9.32126 7.29072C9.32126 7.0488 9.40374 6.84536 9.56869 6.68041C9.73363 6.51546 9.93707 6.43299 10.179 6.43299C10.4209 6.43299 10.6244 6.51546 10.7893 6.68041C10.9652 6.84536 11.0532 7.0488 11.0532 7.29072C11.0532 7.53265 10.9652 7.74158 10.7893 7.91753C10.6244 8.08247 10.4209 8.16495 10.179 8.16495C9.92607 8.16495 9.72814 8.07698 9.58518 7.90103C9.40924 7.73608 9.32126 7.53265 9.32126 7.29072ZM15.6897 -9.53674e-07C17.1302 -9.53674e-07 18.2409 0.351889 19.0216 1.05567C19.8024 1.74845 20.1928 2.72715 20.1928 3.99175C20.1928 5.27835 19.8079 6.27904 19.0381 6.99381C18.2684 7.70859 17.1192 8.06598 15.5907 8.06598H12.9185V-9.53674e-07H15.6897ZM15.6402 1.25361H14.2876V6.77938H15.7886C16.7783 6.77938 17.5316 6.54845 18.0484 6.0866C18.5653 5.61375 18.8237 4.92646 18.8237 4.02474C18.8237 2.17732 17.7625 1.25361 15.6402 1.25361Z" fill="black"/>
</svg>
