<?xml version="1.0" encoding="UTF-8"?>
<svg xmlns="http://www.w3.org/2000/svg" xmlns:xlink="http://www.w3.org/1999/xlink" width="32px" height="32px" viewBox="0 0 32 32" version="1.1">
<g id="surface1">
<path style=" stroke:none;fill-rule:nonzero;fill:rgb(0%,0%,0%);fill-opacity:1;" d="M 3.445312 22.167969 L 2.210938 28.679688 L 0 28.679688 L 5.429688 0 L 7.640625 0 L 13.046875 28.679688 L 10.832031 28.679688 L 9.601562 22.167969 Z M 8.773438 17.652344 L 6.535156 5.863281 L 4.296875 17.652344 Z M 14.203125 25.921875 C 14.203125 25.0625 14.328125 24.339844 14.582031 23.753906 C 14.832031 23.167969 15.140625 22.871094 15.511719 22.871094 C 15.878906 22.871094 16.191406 23.167969 16.441406 23.753906 C 16.707031 24.339844 16.84375 25.0625 16.84375 25.921875 C 16.84375 26.78125 16.707031 27.527344 16.441406 28.152344 C 16.191406 28.738281 15.878906 29.03125 15.511719 29.03125 C 15.125 29.03125 14.824219 28.71875 14.605469 28.09375 C 14.335938 27.507812 14.203125 26.78125 14.203125 25.921875 Z M 23.90625 0 C 26.101562 0 27.796875 1.25 28.984375 3.753906 C 30.175781 6.214844 30.769531 9.695312 30.769531 14.191406 C 30.769531 18.765625 30.183594 22.324219 29.011719 24.867188 C 27.835938 27.410156 26.085938 28.679688 23.757812 28.679688 L 19.683594 28.679688 L 19.683594 0 Z M 23.832031 4.457031 L 21.773438 4.457031 L 21.773438 24.105469 L 24.058594 24.105469 C 25.566406 24.105469 26.714844 23.285156 27.503906 21.640625 C 28.289062 19.960938 28.683594 17.515625 28.683594 14.308594 C 28.683594 7.742188 27.066406 4.457031 23.832031 4.457031 Z M 23.832031 4.457031 "/>
</g>
</svg>
